<svg width="365" height="364" viewBox="0 0 365 364" fill="none" xmlns="http://www.w3.org/2000/svg">
<circle cx="180" cy="180" r="180" fill="url(#paint0_linear)"/>
<g filter="url(#filter0_d)">
<path d="M250.04 272.4H214.092H211.751H103.88V87.6H250.04V172.208L266.28 144.613V87.9476C266.28 79.229 259.854 72.2 250.659 72.2H103.203C94.0107 72.2 87.64 79.229 87.64 87.9476V273.014C87.64 281.73 94.0107 287.8 103.203 287.8H250.659C259.854 287.8 266.28 281.73 266.28 273.014V222.313L250.04 249.907V272.4Z" fill="#34495E"/>
<path d="M208.28 111.8H117.8V122.8H208.28V111.8Z" fill="#34495E"/>
<path d="M208.28 162.4H117.8V173.4H208.28V162.4Z" fill="#34495E"/>
<path d="M236.12 138.2H117.8V149.2H236.12V138.2Z" fill="#34495E"/>
<path d="M236.12 188.8H117.8V199.8H236.12V188.8Z" fill="#34495E"/>
<path d="M208.28 213H117.8V224H208.28V213Z" fill="#34495E"/>
<path d="M128.481 260.254C134.703 260.254 139.747 255.471 139.747 249.571C139.747 243.67 134.703 238.887 128.481 238.887C122.259 238.887 117.215 243.67 117.215 249.571C117.215 255.471 122.259 260.254 128.481 260.254Z" fill="#34495E"/>
<path d="M164.223 260.386C170.445 260.386 175.489 255.603 175.489 249.703C175.489 243.802 170.445 239.019 164.223 239.019C158.001 239.019 152.957 243.802 152.957 249.703C152.957 255.603 158.001 260.386 164.223 260.386Z" fill="#34495E"/>
</g>
<g clip-path="url(#clip0)" filter="url(#filter1_d)">
<path d="M255.9 219.229L230.495 247.026C230.317 247.22 230.135 247.29 229.995 247.239C229.911 247.209 229.842 247.134 229.798 247.016C229.681 246.7 229.777 246.166 230.024 245.756L248.36 214.934L241.91 212.587C241.741 212.525 241.648 212.291 241.666 211.969C241.683 211.647 241.809 211.285 241.997 211.014L258.476 187.237L248.225 183.507C248.057 183.445 247.964 183.212 247.98 182.893C247.997 182.573 248.121 182.212 248.307 181.94L276.02 141.524C276.22 141.232 276.46 141.089 276.642 141.156L283.975 143.824L287.181 144.99L290.797 146.306C290.97 146.369 291.064 146.613 291.041 146.944C291.018 147.276 290.883 147.646 290.686 147.913L275.418 168.706L283.065 171.489C283.242 171.553 283.335 171.805 283.308 172.145C283.28 172.486 283.136 172.862 282.933 173.125L261.99 200.179L269.458 202.897C269.646 202.965 269.738 203.245 269.694 203.613C269.651 203.982 269.479 204.373 269.254 204.618L259.504 215.286" fill="#F29F26"/>
<path d="M241.997 211.014C241.809 211.285 241.684 211.648 241.666 211.969C241.648 212.291 241.741 212.525 241.911 212.587L248.361 214.934L230.024 245.756C229.777 246.167 229.681 246.7 229.799 247.016C229.806 247.037 229.816 247.055 229.825 247.073L259.472 209.527L252.191 206.878C252.022 206.816 251.929 206.582 251.946 206.261C251.964 205.939 252.089 205.577 252.277 205.305L268.757 181.528L260.287 178.446C260.118 178.384 260.026 178.152 260.042 177.832C260.059 177.512 260.182 177.151 260.369 176.88L283.222 143.55L276.642 141.156C276.461 141.09 276.22 141.231 276.02 141.524L248.307 181.94C248.121 182.212 247.997 182.573 247.98 182.892C247.964 183.212 248.057 183.445 248.226 183.506L258.477 187.236L241.997 211.014Z" fill="#EF8229"/>
</g>
<defs>
<filter id="filter0_d" x="79" y="70" width="240" height="228" filterUnits="userSpaceOnUse" color-interpolation-filters="sRGB">
<feFlood flood-opacity="0" result="BackgroundImageFix"/>
<feColorMatrix in="SourceAlpha" type="matrix" values="0 0 0 0 0 0 0 0 0 0 0 0 0 0 0 0 0 0 127 0"/>
<feOffset dy="4"/>
<feGaussianBlur stdDeviation="2"/>
<feColorMatrix type="matrix" values="0 0 0 0 0 0 0 0 0 0 0 0 0 0 0 0 0 0 0.25 0"/>
<feBlend mode="normal" in2="BackgroundImageFix" result="effect1_dropShadow"/>
<feBlend mode="normal" in="SourceGraphic" in2="effect1_dropShadow" result="shape"/>
</filter>
<filter id="filter1_d" x="207.833" y="131.961" width="102.01" height="136.489" filterUnits="userSpaceOnUse" color-interpolation-filters="sRGB">
<feFlood flood-opacity="0" result="BackgroundImageFix"/>
<feColorMatrix in="SourceAlpha" type="matrix" values="0 0 0 0 0 0 0 0 0 0 0 0 0 0 0 0 0 0 127 0"/>
<feOffset dy="4"/>
<feGaussianBlur stdDeviation="2"/>
<feColorMatrix type="matrix" values="0 0 0 0 0 0 0 0 0 0 0 0 0 0 0 0 0 0 0.25 0"/>
<feBlend mode="normal" in2="BackgroundImageFix" result="effect1_dropShadow"/>
<feBlend mode="normal" in="SourceGraphic" in2="effect1_dropShadow" result="shape"/>
</filter>
<linearGradient id="paint0_linear" x1="24.3087" y1="77.5563" x2="349.582" y2="259.293" gradientUnits="userSpaceOnUse">
<stop stop-color="#3DA475"/>
<stop offset="0.756008" stop-color="#6CDCAA"/>
<stop offset="0.987235" stop-color="#30A16F"/>
</linearGradient>
<clipPath id="clip0">
<rect width="57.9625" height="115.64" fill="white" transform="translate(251.375 131.961) rotate(19.995)"/>
</clipPath>
</defs>
</svg>
